<svg xmlns="http://www.w3.org/2000/svg" xmlns:xlink="http://www.w3.org/1999/xlink" id="Layer_1" x="0px" y="0px" viewBox="0 0 1290 199" style="enable-background:new 0 0 1290 199;" xml:space="preserve">
<style type="text/css">
	.st0{fill:#99FF91;}
</style>
<path d="M0.7,188h37.1V82.9l-7.2-22.5h9.1L54.6,188h71.6l14.9-127.7h8.9l-7,22.5V188h37.1V51.2h-72.7L95,178.9h-9.1L73.4,51.2H0.7  V188z"></path>
<path d="M195.1,137.2c0,34.1,22.9,52.8,64.6,52.8c41.9,0,65-18.6,65-52.8v-86h-37.1v67.7c0,23.1,0.6,38.4-27.9,38.4  s-27.5-15.3-27.5-38.4V51.2h-37.1V137.2z"></path>
<path d="M339.8,188h37.1V82.9l-7.2-22.5h9.1L409.2,188h72.9V51.2h-37.2v105.1l7.2,22.5H443L412.5,51.2h-72.8L339.8,188L339.8,188z"></path>
<path d="M494.9,119.5c0,40,27.9,70.4,72.7,70.4c39.4,0,65.6-21,69.6-54.9h-37.1c-3.1,14.7-16.5,22.3-32.2,22.3  c-20.8,0-36.1-11.4-36.1-37.8c0-26.2,15.3-37.6,36.1-37.6c15.7,0,29.1,7.4,32.2,22.1h37.1c-4.1-33.8-30.3-54.7-69.6-54.7  C522.8,49.3,494.9,79.7,494.9,119.5z"></path>
<path d="M744.1,83.8V51.2h-99.5v32.6h31.2v71.6h-31.2V188h99.5v-32.6h-31.2V83.8H744.1z"></path>
<path d="M758.9,188H796V82.9l-7.2-22.5h9.1L812.8,188h71.6l14.9-127.7h8.9l-7,22.5V188h37.1V51.2h-72.8l-12.4,127.7H844L831.6,51.2  h-72.8V188H758.9z"></path>
<path d="M1013.7,188h37v-45.4h47.5V188h37.1v-40.5c0-12-7-19-18.8-19h-21.3v-8.9c17.1-1.7,38.4-6.8,38.4-30.1  c0-30.7-31.4-38.2-64-38.2h-55.9L1013.7,188L1013.7,188z M1050.7,110V83.8h18.8c16.5,0,27-0.8,27,13.2s-10.5,13-27,13H1050.7z"></path>
<path d="M1145.7,119.5c0,40,27.3,70.4,72.2,70.4c44.6,0,72-30.5,72-70.4c0-39.8-27.3-70.2-72-70.2  C1173,49.3,1145.7,79.7,1145.7,119.5z M1182.7,119.5c0-23.9,11.8-37.6,35.1-37.6s34.9,13.8,34.9,37.6c0,24.1-11.6,37.8-34.9,37.8  S1182.7,143.6,1182.7,119.5z"></path>
<path class="st0" d="M975.7,198.9c14.5,0,24.2-10.5,24.2-22.9c0-12-9.7-22.3-24.2-22.3c-14.9,0-23.7,10.3-23.7,22.3  C952,188.5,960.8,198.9,975.7,198.9z"></path>
<rect x="94.5" y="19.7" transform="matrix(0.9566 -0.2915 0.2915 0.9566 -10.0925 51.5625)" class="st0" width="147" height="79.9"></rect>
<path d="M120.5,94.3l8.4-2.6L119.8,62l-3.2-4.8l2.1-0.6l21.9,31.6l16.6-5.1L145.9,46l-8.4,2.6l9.1,29.7l3.2,4.8l-2.1,0.6l-21.9-31.6  l-16.6,5.1L120.5,94.3z"></path>
<path d="M155.8,63.3c3.3,10.8,13,16.9,24.8,13.3c11.7-3.6,16.4-14,13.1-24.9c-3.3-10.8-13-16.9-24.7-13.3  C157.1,42.1,152.5,52.5,155.8,63.3z M164.2,60.7c-2.2-7.1,0-12.8,7-14.9s11.9,1.4,14,8.5c2.2,7.2,0.1,12.8-6.9,14.9  C171.3,71.4,166.4,67.9,164.2,60.7z"></path>
<path d="M217.6,32.3l-2.2-7.4l-25.3,7.7l2.2,7.4l8.4-2.6l6.8,22.4l-8.4,2.6l2.2,7.4l25.3-7.7l-2.2-7.4l-8.4,2.6l-6.8-22.4  L217.6,32.3z"></path>
</svg>